<svg width="147" height="38" viewBox="0 0 147 38" fill="none" xmlns="http://www.w3.org/2000/svg">
<path fill-rule="evenodd" clip-rule="evenodd" d="M14.7048 33.0873C18.2806 29.5329 20.9135 26.3504 22.6725 23.5378C24.8158 20.1105 25.6398 17.4665 25.6398 15.5015C25.6398 11.8105 24.5217 9.03845 22.4393 6.90599C20.3065 4.72203 17.7846 3.66 14.6814 3.66C11.5782 3.66 9.05632 4.72203 6.92356 6.90599C4.84108 9.03845 3.72299 11.8105 3.72299 15.5015C3.72299 17.4468 4.5589 20.0807 6.75398 23.5096C8.56803 26.3433 11.1997 29.535 14.7048 33.0873ZM14.6814 37.5C19.4962 32.9846 23.0529 28.8891 25.3517 25.2133C27.6504 21.5376 28.7998 18.3003 28.7998 15.5015C28.7998 11.0981 27.4332 7.49697 24.7001 4.69818C21.9669 1.89939 18.6273 0.5 14.6814 0.5C10.7355 0.5 7.39594 1.89939 4.66276 4.69818C1.92958 7.49697 0.562988 11.0981 0.562988 15.5015C0.562988 18.3003 1.73952 21.5376 4.09259 25.2133C6.44566 28.8891 9.97527 32.9846 14.6814 37.5Z" fill="#4CF15D"/>
<path d="M18.3 15.65C18.3 17.6658 16.6658 19.3 14.65 19.3C12.6342 19.3 11 17.6658 11 15.65C11 13.6342 12.6342 12 14.65 12C16.6658 12 18.3 13.6342 18.3 15.65Z" fill="#4CF15D"/>
<path d="M36.0878 28H47.0858V25.01H39.3378V9.878H36.0878V28ZM47.8796 12.764H51.1556V9.878H47.8796V12.764ZM47.9576 28H51.0776V15.182H47.9576V28ZM57.5715 28.26C59.9895 28.26 62.5635 26.96 62.5635 23.97C62.5635 19.29 55.8555 20.434 55.8555 18.484C55.8555 17.886 56.4795 17.392 57.4935 17.392C58.8975 17.392 59.5995 18.224 60.0415 19.03L62.4595 17.704C61.4975 15.962 59.8075 14.922 57.5975 14.922C55.1275 14.922 52.8915 16.196 52.8915 18.666C52.8915 23.424 59.4955 21.994 59.4955 24.152C59.4955 24.828 58.8715 25.66 57.4155 25.66C55.6995 25.66 55.0235 24.49 54.6855 23.554L52.1895 24.672C52.8135 26.622 54.8675 28.26 57.5715 28.26ZM70.8638 17.652V15.182H67.6658V10.398L64.5458 12.712V15.182H62.4658V17.652H64.5458V24.412C64.5458 27.142 66.3658 28.26 68.5238 28.26C69.3038 28.26 70.0838 28.13 70.8638 27.87V25.374C70.2918 25.556 69.7458 25.66 69.3038 25.66C68.2898 25.66 67.6658 25.192 67.6658 24.178V17.652H70.8638ZM83.2211 21.422C83.2211 17.86 81.2971 14.922 77.3191 14.922C73.0551 14.922 71.2351 18.302 71.2351 21.656C71.2351 25.088 73.1071 28.26 77.5271 28.26C79.6851 28.26 81.3751 27.506 82.7791 25.946L80.6211 24.048C79.7371 25.062 78.6971 25.426 77.5531 25.426C75.5251 25.426 74.4851 24.308 74.3551 22.618H83.1431C83.1951 22.202 83.2211 21.812 83.2211 21.422ZM74.3291 20.148C74.5111 18.874 75.3951 17.522 77.2931 17.522C78.9311 17.522 80.1791 18.51 80.2311 20.148H74.3291ZM91.6076 14.922C90.0476 14.922 88.6436 15.442 87.7336 16.664V15.182H84.6136V28H87.7336V22.878C87.7336 20.59 87.7336 17.652 90.6456 17.652C93.0116 17.652 93.0116 19.628 93.0116 20.512V28H96.1316V19.732C96.1316 16.69 94.4936 14.922 91.6076 14.922ZM112.778 9.878L108.098 22.644L103.444 9.878H98.7905V28H102.04V14.454L106.538 26.414H109.684L114.182 14.454V28H117.432V9.878H112.778ZM125.275 14.922C122.935 14.922 121.037 15.832 119.503 17.678L121.765 19.576C122.701 18.328 123.923 17.652 125.223 17.652C126.705 17.652 127.641 18.51 127.641 19.914V20.278H124.443C122.987 20.278 121.895 20.46 121.037 20.85C119.789 21.422 119.113 22.566 119.113 24.074C119.113 26.518 121.037 28.26 123.741 28.26C125.431 28.26 126.887 27.532 127.641 26.336L127.901 28H130.761V19.914C130.761 16.82 128.655 14.922 125.275 14.922ZM124.235 25.608C122.987 25.608 122.233 25.036 122.233 24.126C122.233 23.658 122.415 23.294 122.753 23.06C123.169 22.748 123.793 22.618 124.859 22.618H127.641C127.641 24.282 126.107 25.608 124.235 25.608ZM139.713 14.922C138.335 14.922 136.905 15.364 136.021 16.456V15.182H132.901V33.304H136.021V26.7C136.827 27.662 138.257 28.26 139.713 28.26C142.859 28.26 145.121 25.79 145.121 21.604C145.121 17.756 143.197 14.922 139.713 14.922ZM138.933 25.53C136.697 25.53 135.735 23.814 135.735 21.578C135.735 19.29 136.697 17.652 138.959 17.652C141.039 17.652 142.001 19.056 142.001 21.578C142.001 24.074 141.013 25.53 138.933 25.53Z" fill="white"/>
</svg>
