<?xml version="1.0" encoding="utf-8"?>
<!-- Generator: Adobe Illustrator 24.0.1, SVG Export Plug-In . SVG Version: 6.00 Build 0)  -->
<svg version="1.1" xmlns="http://www.w3.org/2000/svg" xmlns:xlink="http://www.w3.org/1999/xlink" x="0px" y="0px"
	viewBox="0 0 1000 900" style="enable-background:new 0 0 1000 900;" xml:space="preserve">
	<defs>
		<style type="text/css">
			@font-face {
				font-family: 'Source Serif 4';
				src: url('/SourceSerif4-Regular.ttf');
			}

			:root {
				--text-fz: 15px;
				--text-display: none;
			}
	
			.st0 {
				fill:#D6D6D6;
				stroke:#000000;
				stroke-miterlimit:10;
			}
	
			text {
				font-family: 'Source Serif 4';
				font-size: var(--text-fz);
				display: var(--text-display);
			}
		</style>
	</defs>
	<g id="26">
		<path class="st0" d="M312.2,38.1c-2.2-6.2-4.7-9.3,6.1-8.6c7.3,0.5,9.9-5.5,9.9-11.3s3.4-9.8,8.2-7.5c8.4,4.1,10.6,2.1,14.9-1
		c9.4-6.9,11.4-3.7,18.7,0.5c2.1,1.2,13.5-4.4,13.6,7.1c0.1,9.9,4.9,21.7,15.3,13.2c6.4-5.2,6.5-4,10.4-0.3c3.1,3,5.6-3.6,11.1,2.6
		c1.4,1.7,5,0.5,6.7,2.8c2.5,3.5,19,8.6,25.1,5.2c4.6,1.2,5.2,9.3,0.1,20.4c-5.9,12.7-6.9,12.6-13.6,17.1c-2,1.4-1.4,7.3-1.4,9.5
		c-1.6,0.2-2.5,0.4-4.5,0.6c-8.4,1-15.5-1-16.1,7.8c-0.3,4.8-8.1,7.3-8.5,13.9c-0.3,5.9-4.4,6.6-8.6,11
		c-3.8,3.9-11.8,14.1-14.4,17.4c-6.5-4.4-21.6-17-26.8-19.7c-3.7-1.9-11.7-1.2-13.4-2.5c-3.6-2.7-6.8-5.6-11-6.2
		c-1.7-0.2-2.8-0.1-4.6-0.1c0-1.5,0.2-2.1-0.5-5.2c-1.2-5.3-3.3-3.6-1.9-17c1.8-16.4-3.9-12.4-6.4-20.3c-2.5-8-0.7-14.2-4.4-21
		C314.2,42.7,313,40.2,312.2,38.1z" />
	</g>
	<g id="27">
		<path class="st0" d="M329.3,109.9c0,2.5-0.3,6.8-3.9,10.2c-5.2,5-14.3,11.8-17.6,20.8s-6.5,14.7-6.4,19.8c0.1,3.3-3,7.9-6.5,11.9
		c1.4,1.3,3.2,2.7,3.3,3.4c0.1,1.9,0.6,2.4,3.3,2.3c2.7-0.1,6.1,2.5,6.2,5.3c0.1,2.7,1.2,4,4.7,3.8c3.5-0.1,4.5,0.5,5.5,3.3
		s4,0.4,6.5,4.4c2.5,4,3.3,6.3,11.7,6.9c3.4,0.2,8.2,2.2,12.7,5.7c4.6,3.6,9.8,6.3,11.2,8.6c1.1,1.8,2.3,2.2,4.6,2.9
		c0.9,0.3,1.9,1.3,3.5,2.3c2.2,1.4,5.9,2.3,7.9,5.2c2.8,4.2,6.5,6.6,9.9,9.6c3.1,2.8,4.6,3.7,7.1,3.8c2.5,0.1,3.6,0.8,5.1,3.6
		c1.5,2.7,1.4,6.1,7.5,6.1s3.7,0.6,6.9,3.3c3.2,2.7,2.5,3.3,5.4,4c3.3,0.7,3.5,4.2,8.1,4.1c2.7-0.1,1.1,1.5,4.4,1.5
		c1.6,0,4.9,0.1,6.3,0.1c-0.2-2.2,0.5-2.8-3-6.7c-3.5-3.8-9-8.6-12.8-17.1c-4.5-9.9-7-13.6-9.6-21.3c-2.5-7.6-4.5-8.9-5.9-16.4
		c-1.6-8.5-7.5-13.8-7.9-23.6c-0.5-10.3-1.9-17.5-3.9-24c-2.1-6.6-4.2-10.3-8.2-15.3c-5.3-3.5-20.3-16.2-26.8-19.7
		c-3.8-2-11.8-1.2-13.4-2.5c-5.3-4.2-7.4-5.5-11-6.2C332.7,109.8,330,109.9,329.3,109.9z" />
	</g>
	<g id="28">
		<path class="st0" d="M452.3,40.8c1-4.6,2.6-6.2,4.7-8.8c3.3-4.1,0.5-8.6,2.9-8c2.4,0.6,8.7,0.4,10.2-2.3c1.7-2.9,12-0.4,14.2-2.5
		c3.1-2.9,2.2-3.5,8.2-3.9c6-0.4,8-1.2,10.9,0.6c2.7,1.7,3,2.6,5,5.1c1.8,2.2,4.6,2.1,8.9,2.2c4.5,0,5.1-0.9,7-2.8
		c1.9-1.9,4.2-2.3,8.9,0c1.8,0.9,6.3,5.2,13.4,7.2c1.5,0.4,2.4,0.7,3.3,1c0,2.2,0,5.1,0,9.7c0,6.7,1,28.2-1.1,33.2
		c-2.2,5-3.9,11.2-0.8,18.7c3.8,9.2,3.2,14,7.8,19.9c3.1,3.9,8,5.9,8,17.3c0,10.9-1,13.1-2.4,19.5c-0.4,14.1,2.1,15.3,0.4,18.2
		c-3.1-1.7-8.8-3.2-13.3-8.2c-3.9-4.4-10.9-3.8-13.8-10.7c-1.1-2.5-3.3-4.4-7.1-4.3c-3.8,0.1-6.8-2.2-11.1-5.2
		c-4.4-3-13.9-8.7-19.7-12.8c-5.1-3.6-8.7-6.3-13.5-6.8c-3.5-0.4-5.7-4.6-11-7c-6.1-2.7-11.3-5.7-17.1-9c-8.7-4.9-13-12.1-18-13.3
		c-0.2-2.3-0.4-8.3,1.4-9.5c1.8-1.2,11.5-11.6,13.6-17.1C454.5,55.8,458.9,42.7,452.3,40.8z" />
	</g>
	<g id="30">
		<path class="st0" d="M385.2,138.4c2.8-3.6,11.9-14.9,14.4-17.4c5.3-5.2,8.2-5.2,8.6-11c0.5-6.7,8.3-9.3,8.5-13.9
		c0.1-3.5,1.7-5.6,3.3-6.2c2.4-1.4,9.2-1.2,12.8-1.6c2.8-0.3,3.2-0.5,4.5-0.6c4.7,1,8.9,8.1,18,13.3c3.2,1.8,13.4,7.6,17.1,9
		c4.3,1.6,7.2,6.4,11,7c3.8,0.6,6.6,1.7,13.5,6.8c4,3,8.9,5.6,19.7,12.8c3.7,2.5,6.5,5.1,11.1,5.2c4.3,0.1,6,1.7,7.1,4.3
		c0.7,1.6,2.2,4.5,7,6.5c1.1,0.5,4.7,2,6.6,4c2.9,3,4.3,3.9,7.4,5.6c2.8,1.5,4.8,2.1,6,2.8c1.6,1.9,4,7.8,4.6,11.9
		c0.6,3.9,3.4,8.6,5.1,11c2.5,1.5,2.9,1.5,2.7,3.8c-2.5,1-6.6,0.8-12.2,2.1c-5.6,1.3-5.9,2.1-14.8,2s-20.5,0.1-22.7,0.1
		c-2.2,0-2.3,1.7-4.6,2.3c-2.3,0.7-3.8,1.9-8.2,0.8c-4.4-1.1-11.3-0.8-15.1,1.8c-3.8,2.7-5.7,6.4-10.2,6.5s-13.6-0.1-18.6,1.5
		c-3.5,1.1-4.4-0.3-6.4,1.8c-2,2.1-3.9,2-7.4,2c-3.5,0-10.3,0-12.2,0c-1.9,0.1-2.6,1.6-4.5,3.2c-1.9,1.6-2.7,3.8-5.5,3.9
		c-2.8,0.1-9.7,0.5-12.1,1.4c-2.4,0.9-3.6,1.7-6.2,3c-0.6-1.4-1.6-3.6-2.5-6.4c-0.6-2.5-5.1-11-5.9-16.4c-1.2-7.9-7.1-12.8-7.9-23.6
		C396.7,170,395.7,150.4,385.2,138.4z" />
	</g>
	<g id="29">
		<path class="st0" d="M549.9,28.7c7.6,2.1,15.3,3.9,18,0.6s7.1-4.7,12,0.6c4.9,5.3,3.5,5.9,7.7,5.1c4.2-0.8,5.6,0.3,6.3,3.6
		c0.7,3.3,0.5,2.1,5.5,1.1c5-1,6.9-3.1,6.9,4.2s1.5,10.2,16.7,12.9c15.3,2.7,14.7,6.1,9.1,12.3c-5.6,6.3-3.3,4.5-3.1,7.5
		c0.2,3-0.1,7.7-1.2,11c-1.1,3.3-1.4,6.4,0.2,9.6c1.6,3.2,5.7,26.5,7,30.9s1.8,16.4,4.9,21.8s4.9,12.8,4.6,15.8
		c-3.1,1.3-19.3,6.6-23.5,9.4c-4.2,2.8-6.7,5.6-11.7,5.6s-13.5,2.6-16.7,5.1s-4.6,3.4-9.8,4.3c-5.2,0.9-5.4,0.9-8.7,1.5
		c0.2-2.3-0.5-2.5-2.7-3.8c-3.8-5.4-4.9-9.1-5.1-11c-0.2-2.3-2.6-9.5-4.6-11.9c1.6-2-1.3-8.4-0.4-18.2c2.7-10.6,2.2-13.3,2.4-19.5
		c0.4-10.1-4.9-13.7-8-17.3c-3.5-3.2-5.3-14.1-7.8-19.9c-0.4-0.9-4.2-8.3,0.8-18.7C551.3,66.2,549.4,39.4,549.9,28.7z" />
	</g>
	<g id="31">
		<path class="st0" d="M436.5,262.7c3.3,4.5,4.7,6.8,13.3,7.6c6.1,0.6,4.7,7.7,9.7,7.4c6.3-0.3,11.9-0.9,14.8,2.2c2.9,3.1,4.4,5,13,5
		c8.6,0.1,8.7,1,11.7,2c3,1,7.7,1.2,11,1.9c3.3,0.7,14.9,0.1,18.2-0.9c0.8-0.6,2.9-11.5,9.3-18.6c6.3-7.1,9.5-16.2,10.6-18.7
		c1-2.4,6-14.3,11-17.7c1.9-3.1,1-6.7,2.3-14c3.3-4.7,17-20.2,16.5-27.9c-2.2,0.4-2.4,0.3-3.7,0.6c-3.9,0.9-8.6,1.1-12.2,2.1
		c-3.6,0.9-6.2,2-14.8,2c-8.5,0-20.7,0.1-22.7,0.1s-2.4,1.6-4.6,2.3c-2.2,0.7-4.2,1.8-8.2,0.8s-11.2-0.9-15.1,1.8
		c-3.9,2.7-5.7,6.5-10.2,6.5c-6,0-15.1,0.2-18.6,1.5c-3.4,1.3-4.4-0.7-6.4,1.8c-2.8,3.4-11.5,1.4-19.6,2c-3.8,0.3-6.6,7.5-10,7.1
		c-5,0.4-8.3,0.1-12.1,1.4c-2,0.7-4.9,2.2-6.2,3c2.4,5.1,6.5,13.2,7.1,14.9c1.4,3.5,4.6,8.4,8.2,12.2
		C432.4,255.2,436.9,257.9,436.5,262.7z" />
	</g>
	<g id="32">
		<path class="st0" d="M528.2,287.9c3.6-9.5,4.8-13.3,9.3-18.6c5.4-6.3,7.5-11.3,10.6-18.7c3-7.3,7.2-15,11-17.7
		c2-3.6,0.8-6.5,2.3-14c4.5-5.8,16.6-20.2,16.5-27.9c1.1-0.2,0.1-0.1,5-0.9c4.9-0.8,7.3-2.3,9.8-4.3c2.7-2.2,12.1-5.4,16.7-5.1
		s8.9-3.6,11.7-5.6c2.9-2,14.4-6.2,23.5-9.4c2.1,7,4.3,22.5-2.2,23.9c-6.5,1.4-10.1,4.4-4.6,7.8c5.5,3.3,5.2,3.5,8.5,3.3
		c3.3-0.2,3.5-5.5,5,1.3c1.4,6.8,5.2,16.1,5.7,27.5c0.5,11.4,3.7,17.2,4.2,25.4c0.5,8.2,1,22-7,17.7c-8.1-4.2-16.2-11.4-20-15.7
		c-3.8-4.2-12.5-20.5-17.8-26.2c-5.3-5.7-5.8-7.6-9.3-8.2s-5.7,2.9-5,6.1s1,5.3,4,5.7c3,0.4,16.7,11,19,19.5
		c2.3,8.5,4.8,18.9,12.5,20.1c7.6,1.2,5.3,4.5,9.6,6.8c4.3,2.3,9.5,1.3,10.4,5c0.9,3.7-0.1,3.4-0.4,6.2c-2.9,0.2-4.7,0.5-8.9,1.8
		s-8.3,3.2-11.9,3.7c-3.5,0.5-14.9,0.5-17.2,0c-2.3-0.5-2.7-2.1-6.3-2.5c-3.6-0.4-6.5-0.5-8.9,0.3c-2.4,0.7-5.6,1.2-8,0.3
		c-2.4-0.9-13.3-4.6-20.3-5.3c-7-0.7-12.1-1.7-15,0.1c-2.9,1.8-4.2,3.8-6.1,5.4c-1.8,1.6-7.1-0.9-8-2.3c-0.9-1.4-0.9-6.2-4.4-6.1
		C538.7,287.4,536.4,287.1,528.2,287.9z" />
	</g>
	<g id="8">
		<path class="st0" d="M385.7,236.3c-3.1,6.7-5.1,11.4-7.2,15.1c-2.2,3.7-0.4,7-5.3,10.4c-4.9,3.3-5.3,5.5-5.3,8.2
		c0,2.7-0.8,4.5-6.3,5.7s-8.2,4.7-8.4,11.2s-0.9,14.6-5,17.6c-4.1,3-7.7,11.5-7.6,16c0.1,4.5,1.6,9,0,10.1c-1.6,1.1-6.9,3.9-7.2,7.1
		c-0.3,3.2-6.2,20.3-6.2,24.9s-0.9,6-4.1,7s-4.9,14.7-6.6,17.8c5.3,3.7,16.6,2.1,20.4,2.3c6.8,0.3,20.9-12.7,28.3-14.1
		c7.3-1.4,17.2-2.7,24.3-3.2c7.7-0.6,25.3-0.9,43.3,0.5s21.3,2.6,44.3,2.5c22.5-0.1,36.1-1.7,39.6-1.6c2.3-1.1,3.8-1.9,4-4.3
		c-0.3-2.4-1.7-4,0.8-9.6c2.4-5.6,1.6-21.9,3.1-29.2c1.6-7.2,15-24.9,15.8-30.5c0.9-5.6,0.7-3.9,3.1-4.2c2.4-0.3,2.2-1.3,2.8-2.7
		c-0.9-1.5-0.9-6.2-4.4-6.1c-0.6,0-6-0.1-14,0.7c-1.7,0.7-12.9,1.7-18.2,0.9c-3.5-0.5-7.4-1-11-1.9c-2.4-0.6-2.6-2-11.7-2
		c-2.3,0-8.9,0.5-13-5c-1-1.4-3.8-3.2-14.8-2.2c-4.5,0.4-4-6.9-9.7-7.4c-7.6-0.7-9.6-2.5-13.3-7.6c-1.2,0-2.8,0-6.3-0.1
		c-1.7,0-2-0.4-2.5-0.9c-0.5-0.6-0.9-0.6-1.9-0.6c-4.9-0.1-4.4-3.1-8.1-4.1c-1.8-0.3-2.5-0.9-3.5-2.2c-0.5-0.6-1.2-1.2-1.9-1.8
		c-0.3-0.2-1.3-1.1-2.1-2.4c-0.6-1-2.7-0.9-4.8-0.9c-0.6,0-4.3,0.2-5.8-2.5c-1.4-2.6-2.3-7.3-6.8-7.2
		C389.5,240.2,387.3,237.6,385.7,236.3z" />
	</g>
	<g id="7">
		<path class="st0" d="M520.8,369.6c-0.8-3.3-1.3-4.8,0.8-9.6c1.8-2.9,2.3-25.9,3.1-29.2c1.4-5.8,15.6-27.3,15.8-30.5
		c0.4-2.4,0.5-2.8,0.7-3.7c0.3-0.8,0.9-0.4,2.4-0.5c2.4-0.2,2.3-1.7,2.8-2.7c0.7,1.2,6.2,4.1,8,2.3c1.4-1,4.4-5.5,8.1-6.2
		c3.4-0.6,10.9,0.5,13,0.7c6.6,0.7,15.6,3.8,20.3,5.3c3.2,1.1,5.8,0.2,8-0.3c3-0.7,4.9-0.6,8.9-0.3c3.4,0.3,4.4,2.2,6.3,2.5
		c4.5,0.7,13.5,0.4,17.2,0c3.5-0.4,14.3-5.4,20.7-5.5c0,5.1,2,9.2,6.8,9.3c4.8,0.1,5.1-2.6,5.4,1.1c0.3,3.7-0.3,3.9,1.1,4.7
		s1,5.3-0.5,6.5s-2.5,9.4-0.8,11.9c1.8,2.5,8,7.1,7.9,11.1c-0.1,4,1.1,7.2,0.6,9.8c-1.7,1-12.1,6.6-16.1,7.2s-9.2,0-16.1,5.7
		c-6.8,5.7-9.8,3-11.3,13.5c-0.7,5.1-4.4,4.9-5.4,8.4c-8.1,0.8-24.8-1.3-29.4-2.6c-2.9-0.8-12.3,2.3-24.8-3.5
		c-10.1-4.7-13.1-2.1-27.7-4.1C533.3,369.4,524.5,369.8,520.8,369.6z" />
	</g>
	<g id="10">
		<path class="st0" d="M389.6,372.4c-2,4.2-1.1,7.2,0.4,9.2c1.6,2,3.5,6,4,10.4c0.5,4.4-0.1,6.8-1.4,8.2c-1.2,1.4-2.9,2.8,0.4,4.9
		c3.3,2.1,4.6,6,3.3,8.4c-1.3,2.4-1.2,4.6,2,6.1s4.8,3.3,4.8,6c8.2-0.1,16.2,0.2,22.8-0.8c6.6-1,28.3-3.4,33.2-0.7
		c4.9,2.7,12.1,1.4,14.7,1.4c2.6,0-3,6.5,2.3,8.9c5.3,2.4,19.4,2.7,21.6,2.4c3.4-1.2,1.2-13.5,1.6-16.8c0.3-3.3,2.1-3.3,2-10
		c-0.1-7.5,2.4-7.7,2.4-11.1c0-4.2,6.3-9.7,6.5-14.4c0.2-4.4,6.2-6.6,6.7-10.8c-11,0.3-16.5,1.6-39.6,1.6
		c-22.5-0.1-34.1-1.8-44.3-2.5C410.2,371.3,398.9,371.6,389.6,372.4z" />
	</g>
	<g id="6">
		<path class="st0" d="M497.6,436.9c3.2-0.9,1.5-13,1.6-16.8c0.1-2.7,2-2.7,2-10c0-7.2,2.3-8.2,2.4-11.1c0.1-4.3,6.5-10.1,6.5-14.4
		c0.1-4,6.7-7.5,6.7-10.8c1.6-0.9,3.8-1.3,4-4.3c15.2,0.3,20.2,0.7,25.9,1.5c5.3,0.8,13.2,0.9,18.1,1.2c3.9,0.3,6.9,1.7,9.7,2.9
		c12.7,5.6,19.5,2.8,24.8,3.5c5.8,0.8,14.1,3.2,29.4,2.6c0.5,5.8-0.1,8,2.1,10.3c2.2,2.3,2,3.1,2,4.9s1.3,13.7-3.9,18.9
		c-6.3,6.3-1.8,13.3-0.9,14.3c2.4,2.7,2.2,4.2-1.2,6c-3.4,1.8-4.5,5.6-2.3,11.9c2.2,6.3-0.7,12-5,15.8c-2.1,1.8-1.2,5.9-1.4,11
		c-8.5,1.3-15.1,1.2-21.3,6.3c-6.2,5.2-14.1,9.9-20.7,14.7s-14.3,9.8-19.2,10.5c-4.9,0.7-4.5,2.7-6.9,5.3
		c-2.4,2.6-14.2,10.6-15.5,11.3c-2.9-3-3.3-6.4-7.4-8.7c-4.1-2.3-6.6-3.4-13.8-13.9c-7.2-10.5-14.5-14.3-14.7-24.1
		C498.4,466,497.8,448.4,497.6,436.9z" />
	</g>
	<g id="5">
		<path class="st0" d="M677.7,346.5c-7.1,3.7-13.1,6.9-16.1,7.2c-3,0.3-8.7-0.1-16.1,5.7c-7.4,5.8-10,3.6-11.3,13.5
		c-0.9,5.1-4.4,5-5.4,8.4c0.4,6.4,0,8.3,2.1,10.3c2.1,2,1.9,2.9,2,4.9c0.1,2,1.3,13.8-3.9,18.9c-5.3,4.9-3.1,11.9-0.9,14.3
		c2.7,3.1,1.6,4.4-1.2,6c-2.5,1.4-5,4.2-2.3,11.9c2.5,7-1.7,13-5,15.8c-2.2,1.6-1.2,7.6-1.4,11c2.1-0.3,5.1-0.6,6.5,3.5
		c1.4,4,18.4,16.2,21.1,19.2s5,3.8,8.5,3.7c3.6-0.2,8.2,2.4,11.3,5c3.1,2.6,6,2.5,8.5,4.6c2.5,2,4.6,1.9,7,1c2.4-0.8,5-2.8,8.1,0.6
		c3.1,3.4,6.5,2.3,8.4,2.4c4.5,0.1,7.2,5.4,9.4,7.9c1.6-1.1,1.2-2.8,1.7-4.2c1.2-3.6,3.1-5.5-1.2-9.8c-4.2-4.4-5.6-6.2-5.5-13
		c0.1-6.8-1.9-14,5.1-17.5c7.8-4,6.5-15.1,6.8-17.3c0.3-2.2,3.7-8.4,4.8-11.1s2.3-9,6.8-10.1c4.6-1,9.1-10,9.7-16.4
		c0.6-6.4,5.5-17.2,9-21.2c3.5-4,7.1-5.5,8-11.3c0.3-1.8,2.3-2.5,4.5-5.2c-4.8-5.3-15.8-8.2-17.8-14.1c-1.8-5.2-4.3-1.8-7.5-12.3
		c-1.6-5.1-9.6-7.8-13.8-4.8c-3,2.1-7.5,5-10.6,0c-3.3-5.4-11.2-4.7-18.1-5.2C681.8,348.1,680.4,347.2,677.7,346.5z" />
	</g>
	<g id="4">
		<path class="st0" d="M618,474.3c5.5-0.8,5.7,2.1,6.5,3.5c1.8,4.4,19,16.7,21.1,19.2c2.1,2.2,3.4,3.8,8.5,3.7
		c4.8-0.1,9.9,3.7,11.3,5c1.2,1.1,3.7,2.3,5.8,3c1.3,0.5,2.3,1.2,2.7,1.5c1.4,1.2,3.9,2.3,7,1c2.9-1.2,5.3-2.5,8.1,0.6
		c2.9,3.3,6.3,2.4,8.4,2.4c4.2,0,7.3,5.5,9.4,7.9c0,1.3,0,1.8,0,2.6c-0.6,0.5-2.5,0.5-4,0.5c-2.9,0.1-6.5,5.8-10.3,7.9
		c-3.9,2.1-13.7,3.9-18.3,4.4c-4.6,0.5-7.5,2.4-13.4,6.4c-5.8,3.9-24.1,4.3-26.5,4.5c-2.3,0.3-9,5.9-8.7,9c0.3,3.2,0.1,5.6-3.4,7.5
		s-2.4,5.4-1.5,7c0.9,1.6,2.5,5-2.1,5.7s-9.9,12.2-10.2,13.9c-0.3,1.7,2.2,3,2.3,5.3c0.1,2.3-4,8.1-5.4,9.5
		c-2.3-1.5-3.2-2.8-8.4-6.2c-5.2-3.4-24.8-25.1-28.5-27.7c-3.6-2.5-7.3-9.2-22.1-14c-14.7-4.8-13.5-2.7-21.7-7.9
		c-6.3-4-7.7-3-10.8-3.4c0.3-1.6,1.1-6.2,7.7-11.6c3-3.7-1-4.9,3.8-8.2c2.4-1.2,3.7-1.4,9-5c4.3-2.9,11.1-7.3,15.5-11.3
		c2.6-3.1,2.4-4.6,6.9-5.3c6.3-0.9,15.3-7.8,24.3-14c7.5-5.2,14.4-9.9,15.6-11.1C601.8,475.3,615.7,474.6,618,474.3z" />
	</g>
	<g id="9">
		<path class="st0" d="M403,425.6c5.2-0.2,17.3,0.3,22.8-0.8c6.2-1.2,29.1-3.1,33.2-0.7c4.1,2.4,11.8,1.6,14.7,1.4
		c2.9-0.2-3.2,6.3,2.3,8.9c5.6,2.6,20.2,2.7,21.6,2.4c0,5.2,1.1,35.1,1,38.9c-0.2,9.3,9.7,16.4,14.7,24.1
		c4.8,7.3,8.3,11.1,13.8,13.9c4.5,2.3,4.4,5.9,7.4,8.7c-2.5,2.1-7.3,4.1-9,5c-4.3,2.2-1.1,5.8-3.8,8.2c-1.7,1.6-6.6,5.3-7.7,11.6
		c-6.8,0.2-23.3-1.2-27.7,1.2c-4.4,2.3-10.3,1.8-14.3,3.6c-4,1.8-11.7,0.8-13.6,3.7c-1.9,2.9-11.4,5.7-13.3,5.6s-1.5-2.6-4.1-3.9
		s-5.6-11.2-9-14.4c-3.3-3.2-6.1-7.2-7-12.4c-0.9-5.2-8.9-18.1-10.7-22.6c-1.8-4.5-2.2-57.8-5.4-64.9C405.7,436,403,427.7,403,425.6
		z" />
	</g>
	<g id="11">
		<path class="st0" d="M389.6,372.4c-9.5,0.6-22.1,2.8-24.3,3.2c-7.7,1.4-20.5,13.8-28.3,14.1c-8.1,0.3-15.2,1-20.4-2.3
		c-1.9,2.5-0.8,4.2-5.5,7.5c-4.7,3.3-6.1,9.2-6.8,11.5s-0.3,13.5-2.6,16.8c-2.3,3.3-4.4,4.6-1.9,8.7s-0.8,4.9-2.8,6.8
		c-2,1.9-21.6,18.3-24.8,24c2,2.9,6.9,0.4,11.7,4.5c4.8,4,29.5,30.2,31,31.8c1.4,1.6,14.6,10.3,20.4,17.7c2.3,2.9,5.7-0.5,10.2,2.6
		c4.5,3.2,20.9,13.8,28.6,14.4c7.7,0.6,18.9,14.4,33.2,16.7c14.3,2.3,16.3,4.5,18.7,6.4c2.3,1.9,13.9,2.7,15.1,0.7
		c-3.4-2.5-4.2-9.2-9-14.4c-3.8-4.3-4.9-4.9-7-12.4c-2.6-8.9-8.3-16.5-10.7-22.6c-2.7-16.7-1.4-55-5.4-64.9
		c-2.4-6-5.4-12.9-5.9-17.4c0-2.4-1.5-4.5-4.8-6c-2-0.9-3.9-3-2-6.1c0.8-1.4,1.4-4.8-3.3-8.4c-1.5-1.1-3.2-2.2-0.4-4.9
		c1.8-1.7,1.7-5.6,1.4-8.2c-0.6-5.4-2.7-8.8-4-10.4C387.1,377.9,388.8,374.3,389.6,372.4z" />
	</g>
	<g id="13">
		<path class="st0" d="M272.2,462.7c-9,6-10.9,12.4-15.9,15.3c-5,2.9-5.6,10.4-25.2,9.2c-6.7-0.4-10.1,1-15.2-0.1
		c-6.6-1.4-14.5-0.7-18.8,0.4c-1.3,4-4.4,6.8-3,15.9c1.6,10.9,6.2,26.6-6.4,32.1c-12.5,5.5-18.8,5.2-15.2,20.2
		c1.1,4.5,1.9,5,2.7,6.8c6.3,3.4,17.6,3.1,23.7-1.8c6.1-4.9,5.9-5.3,5.9,0.2s-4.9,14.9,8.5,10.9c6.1-1.8,8.7-2.8,12,2.6
		c3.3,5.5,2.9,8,2,11.7c-1,3.7,1,7.4,6.1,10.2c5.1,2.7,0.6,7.4,5.3,9.2c4.7,1.8,7.8,4.5,12.7,5.3s2.2,3.3,9,3.1
		c6.8-0.2,1.2,7,4.9,7.6c3.7,0.6,17.8,7.2,25.8,11.9c2.3-6.5,0.6-6.7,4.5-15.5c3.9-8.8,1.6-20.2,6.3-31.9s7.2-17,8-24.8
		c0.8-7.8,3.3-5.5,6.3-13.7c2.2-6.2,5.3-4.9,9.8-16s6.7-11.9,9.4-15c-5.8-7.6-12.8-11.1-20.4-17.7c-9.4-10.6-25.7-26.9-31-31.8
		C280.1,463.5,273.9,465.3,272.2,462.7z" />
	</g>
	<g id="12">
		<path class="st0" d="M291,633.5c2-6.4,1.8-10.3,4.5-15.5c3-5.8,1.9-20.9,6.3-31.9c4.3-10.9,7.1-17.2,8-24.8
		c0.8-6.6,4.6-9.9,6.3-13.7c2.7-6.1,8-10.1,9.8-16c1.6-5.3,5.1-10.9,9.4-15c2.6,2.8,6-0.5,10.2,2.6c2.4,1.8,19.7,13.4,28.6,14.4
		c3.9,0.4,8.7,3.8,12.9,6.8c12,8.5,16.8,9.4,20.2,10c12.5,2.2,14.5,3.1,18.7,6.4c2.4,1.9,13.8,2.7,15.1,0.7c2.5,1.3,2.2,3.7,4.1,3.9
		c-2,1.4-5.7,5.8-11.3,9.3s-17.6,12.1-17.1,16.9c0.5,4.8,2.8,10.3,0.3,14c-2.5,3.7-8.6,7.9-8.3,17.5c0.1,2-3.8,6-8.2,11.2
		s-18.5,14.7-21.9,17.9s-3.3,5.2-3.8,8.1c-0.5,2.9-2.6,10.2-3.1,17.6c-0.5,7.4-6.8,11.9-11.3,13.2s-14.8,6.5-21.5,1.3
		c-4.1-3.2-5.7-1.7-10.2-0.3c-4.4,1.4-6.5,1.8-9.4-2.7c-2.9-4.6-7-7.6-11.7-10.3c-4.7-2.7-9.8-7-11.6-14
		C294,654.1,291,649.6,291,633.5z" />
	</g>
	<g id="3">
		<path class="st0" d="M374.7,656.2c0-7.2,8.2-11.6,16.6-17.9c7.6-5.7,17.2-16,17.3-19.3c0.4-9.5,3.7-11.9,8.3-17.5
		c3-3.7-0.3-8.3-0.3-14c0-5.1,9.6-11.9,17.9-17.5c6.1-4.2,8.8-7.2,10.5-8.7c2.6-0.4,9.3-1.6,13.3-5.6c2.3-3,7.6-1.5,13.6-3.7
		c6.4-2.3,10.2-1.6,14.3-3.6c4.6-2.3,20.6-1.1,27.7-1.2c5.7,0,8.2,1.9,10.8,3.4c5.5,3.4,7.5,4.1,13.5,5.5c2.2,0.5,3.6,0.9,8.3,2.5
		c12.8,4.2,15.8,8.8,22.1,14c6.1,5.1,23.5,24.1,28.5,27.7c4.7,3.2,6.5,4.9,8.4,6.2c0,1.3,0,1.3,0,2.5c-3.9,0.2-12.7,0-17.7,3.5
		c-5.1,3.5-13.7,1.2-20.7,5.1c-7,3.9-41.3,23.2-45.9,25.6c-4.6,2.3-17,12.4-20.9,22.4c-4,10-7.1,13.8-11,13.7
		c-3.9-0.1-21,0.3-25.4,1.7c-4.4,1.4-4.4,2.6-7.2,2.6s-8.9-1.3-11.9-3.8c-3-2.5-6-6.1-13.4-11.2s-20.2-5.3-27.7-6.9
		c-7.4-1.6-6.3-1.2-8.6-1.3C392.5,660.2,376.7,657.2,374.7,656.2z" />
	</g>
	<g id="1">
		<path class="st0" d="M605.3,608.9c0-1.2,0-1.2,0-2.5c1.1-1.3,5-6,5.4-9.5c0.2-2-2.6-3.3-2.3-5.3c0.4-2.3,5.6-13.2,10.2-13.9
		s3.2-3.7,2.1-5.7c-1-1.8-1.9-5.2,1.5-7c3.1-1.7,3.8-3.8,3.4-7.5c-0.3-3.3,6.3-8.7,8.7-9c2.5-0.4,20.5-0.5,26.5-4.5
		c5.2-3.5,8.9-5.9,13.4-6.4c3.2-0.3,15.6-2.5,18.3-4.4c1.6-0.8,2.7-1.9,3.9-3c2.6-2.5,4.6-4.8,6.4-4.8c2.9-0.1,3.4-0.2,4-0.5
		c1.1,0.8,6.1,1.7,7.8,4.8c1.7,3.1,4.8,5.5,4.6,10.3s-4.4,13.3-3.8,16c0.6,2.7,5.6,7.6,3.4,10.9s-5.4,5.3-4.8,8.4s9,11.2,14.1,13.8
		c5.1,2.5,6.5,9.4,3.7,17.5s2.6,8.5,1.4,12.2c-1.2,3.7-8.2,13.5,0.2,17.8c8.4,4.3,17.2,23.5,17.4,28.4s-3.1,12.9-9,16.8
		c-5.9,3.9-12.3,3.5-19.6,3.7c-7.2,0.2-11.7,0.4-16.4-5.9c-6.9-9.3-3-20.1-5.2-21.6c-2.2-1.6-7.5,1.1-12.2,1.7
		c-4.7,0.6-30.9,4.1-37.2,3.1s-11.5-3.5-17.6,3.5c-6.1,7-10.4,9-11.9,12.1c-1.5-1.6-2.3-2-1.8-10s-5.3-4.7-6.5-13.9
		c-1.2-9.2-2-2.5-1.2-9.2c0.8-6.7-4.6-7.6-1.8-12.7s3.8-7.6,2.2-11.5C610.9,617.1,609.1,614.4,605.3,608.9z" />
	</g>
	<g id="2">
		<path class="st0" d="M621.5,678.3c-2.1-2.6-2.3-2.8-1.8-10s-5.7-5.8-6.5-13.9c-0.8-8.1-1.9-2.8-1.2-9.2c0.7-6.4-4.5-8.4-1.8-12.7
		c2.7-4.4,6.1-8.9-5-23.6c-11.6,0.3-14.6,1.7-17.7,3.5c-3.2,1.8-17.6,2.9-20.7,5.1s-43.5,24.1-45.9,25.6
		c-2.4,1.5-14.2,8.2-20.9,22.4c-5.8,13.3-7.9,13.5-11,13.7c-3.7,0-20.7,0.2-25.4,1.7c-3.9,1.2-4.6,2.6-7.2,2.6
		c-0.3,2.7,0.8,5.5,1.8,7.5s-0.7,8.3,0.6,9.2c1.4,0.9,5.6,0.3,7,3.9c1.4,3.6,12.5,4.7,14.8,5.2c2.3,0.5,5.1,2.2,4.5,11.2
		c-0.5,9,3.8,10.9,4.7,13.1c0.9,2.2,0,10.8-1.6,13.1s-1.9,5.1,2,4.9s5.5,0.1,7.7-2.7c2.2-2.8,1.4-2.9,4.9-3.4
		c3.5-0.5,2.9-2.7,5.9-2.7c2.9,0,3,0.8,3,4.4s-1,9.9,1.6,10.3c2.5,0.4,2.5,4.1,2.5,6.8c0,2.8,1.5,2.9,3.7,2.9s9.7,3.5,10.4,7.3
		c0.7,3.8-0.7,6.3,2.8,8.9c1.1,0.8,1.5,3.1,2.8,4.5c1.7,1,10.2-8.6,12.6-11.4c2.4-2.8,5.5-8.6,8.4-11.6c2.9-3.1,12.7-12.3,16-14.5
		s13-10.3,16.6-12.9c3.6-2.6,22.9-18.2,24.6-21.2c1.7-3,8-9,7.9-22.9S621.5,680.8,621.5,678.3z" />
	</g>
	<g id="24">
		<path class="st0" d="M294.9,172.6c1.4,1.2,3.2,2.6,3.3,3.4c0.1,0.8-0.2,2.5,3.3,2.3c2.6-0.2,6.1,2.6,6.2,5.3
		c0.1,2.7,1.4,4.1,4.7,3.8c3.4-0.3,4.6,0.7,5.5,3.3c0.9,2.7,4.1,0.5,6.5,4.4c2.1,3.5,3.2,6.6,11.7,6.9c6.4,0.2,12.8,6.1,20.7,11.3
		c1.1,0.7,2.4,1.9,3.2,3c1,1.6,2,2.3,4.6,2.9c0.9,0.2,2.9,2.5,6.2,3.7c1.4,0.5,4.6,2.4,5.6,4.5c1,2,7,6.9,9.4,8.9
		c-0.9,1.9-6,13.5-7.2,15.1s-0.7,7.7-5.3,10.4c-4.5,2.7-5.5,6.2-5.3,8.2s-0.7,4.8-6.3,5.7s-8.5,6-8.4,11.2s-0.8,14.8-5,17.6
		c-4.2,2.8-7.9,12.7-7.6,16c-4.6,0.4-9.8-2.7-10.5-8.9c-0.8-6.1,1.8-12.5-9.8-17.1c-11.6-4.7-14.8-13-19.5-16.3
		c-4.7-3.2-26.9,2.2-32.9-2.2c-6-4.3-14.1-15-28.8-16.1c-8.2-8.7-7.1-15.9-8.4-21c-1.3-5.1-8.4-9.2-10-19.6
		c-0.1-11.4-0.1-14.6,0-22.2c2.5-0.3,4.9-1.7,3-5.8c-1.9-4.1-4.5-6.8-1.1-11c3.4-4.1,4.6-6.9,9.2-7.9c4.6-1,7.2-0.6,8.9,3.9
		c1.7,4.5,5.4,11.3,6.3,11c0.9-0.4,2.8-2.9,1.7-5.7c-1.2-2.7-3.1-3.7-0.1-5c3-1.3,2-1.9,7.9-2.1c6-0.2,13.4-2,15.6-3
		c2.2-1.1,3.9-4.1,6.5-2.9c2.5,1.2,3.2,4.4,6.5,4.5C288.3,173.4,292.3,173.7,294.9,172.6z" />
	</g>
	<g id="23">
		<path class="st0" d="M316.6,387.5c1.6-2.4,3.3-17.1,6.6-17.8c3.3-0.7,4.6-4.1,4.1-7c-0.5-3,5.8-21.8,6.2-24.9
		c0.3-3.2,5.8-6.2,7.2-7.1s0.3-6.8,0-10.1c-2.5,0-9.9-1.4-10.5-8.9c-0.7-7.8,0.9-12.8-9.8-17.1c-10.8-4.3-14.6-12.1-19.5-16.3
		c-3.3-2.9-21.6,0.7-29.3-0.8c-2.8-0.6-4.2-1.5-6.5-3.7c-12.5-11.7-19.7-13.2-25.9-13.8c-5.4,5.5-5.9,6.2-10,10.2
		c2.6,3.6,8.8,8.2,8.8,10c0,1.8,0.2,10.8,3.3,14.1s1.8,9.3,2.1,14.2c0.2,4.8-0.6,23.4-1,27c-0.4,3.6-1.9,24.1-4.5,32.5
		c-2.6,8.4-1.9,18.8-4.8,24.2s-6.4,8.9-7.9,10.2c3.7,1.7,16.6,3.8,20.9,3.7c4.4-0.1,9.7-2.9,15-1.5c5.2,1.4,10.3,3.3,18.9,1.5
		c8.7-1.8,22.5-15.2,26.6-17.8C310.5,385.5,314.6,386.1,316.6,387.5z" />
	</g>
	<g id="22">
		<path class="st0" d="M272.2,462.7c0.9-1.9,4.4-5.6,8.5-9.5c6.6-6.3,14.7-13.2,16.2-14.5c2.3-2,5.3-2.9,2.9-6.8
		c-2.3-3.8-0.5-5.3,1.9-8.6c1.5-2,1.9-6.6,2.1-10.6c0.2-2.5,0.2-4.8,0.5-6.2c0.9-3.7,2.6-8.6,6.8-11.6c4.9-3.5,3.6-5,5.5-7.4
		c-4.2-2.5-8.1-0.5-10.2,0.7c-3,1.8-19,16.6-26.6,17.8c-8,1.2-9.4,1.1-18.9-1.5c-5.7-1.5-10.8,1.6-15.1,1.5
		c-8.9-0.3-18.7-2.7-20.8-3.7c-2,0.9-1.8,3.2-8,4.4c-6.2,1.2-19.1,2.2-22.2,2.6c-3.1,0.4-9,5-12.5,5.8c-3.5,0.8-11.2,0-15,1.7
		c1.3,2,4.9,5.5,4.6,7.9c-0.3,2.4,0.5,9,3.5,10.2s14.3,4,14.4,6.4c0.1,2.4-1.6,13.8,2.1,16.9c3.7,3.1,9.5,6.1,8.2,12.4
		s-2.3,14.2-2.9,16.8c6.7-1.7,13.6-1.5,18.8-0.4c5.2,1.1,12.7-0.5,15.2,0.1c1.1,0.3,8.8,0.4,13.8-1.1c6.6-2,8.1-6.3,11.4-8.1
		c2.5-1.4,3.9-3.5,5.7-5.6C264.2,469.9,265.5,467.4,272.2,462.7z" />
	</g>
	<g id="34">
		<path class="st0" d="M167.4,416.8c-1.6-0.7-13.7-5.7-19.9-11.5s-6.8-10.1-17.9-12.4c1.2-3.5,0.6-5.9-1.4-10.1
		c3.5-3.2,9-6.3,9.2-16.5c0.2-10.2,2.1-15,4.2-20.1s7.7-9.3,7.4-19.5c-0.2-10.2-2.3-29.5,2.9-37.2c5.3-7.7,5.3-3,5-16.5
		c-0.3-13.5,9.6-11.8,11.6-12s-0.1-4.8,1.6-5.2c1.7-0.3,3.9-0.9,5.1-2c1.2-1.1,14.1,0.1,15.8,2.3c1.6,2.2,8,1.7,11.1,4.7
		s12,8.2,14.1,8c2.1-0.2,5.3-2.4,7.2-1.7c2,0.7,4.5,1.6,5.7,3.1s8.7,7.8,8.8,10s0.2,10.8,3.3,14.1c1.8,1.9,2.8,4.3,1.9,23.1
		c-0.9,17.3-2.3,39.7-5.4,50.5c-3.5,12.7-1.3,15.3-4.7,23.9c-3.4,6.4-6.9,9.4-8.1,10.5c-1.7,0.6-2.1,3.4-8,4.4
		c-2.4,0.4-12.4,1.9-21,2.4c-4.8,0.3-9.7,5.3-13.7,6C177.8,415.9,171.6,415.1,167.4,416.8z" />
	</g>
	<g id="25">
		<path class="st0" d="M163.3,261.5c2.3-0.4,4.4-0.4,5.2-0.4c2-0.1-0.1-4.8,1.6-5.2c1.7-0.3,3.9-0.9,5.1-2c1.2-1.1,14.1,0.1,15.8,2.3
		c1.6,2.2,8,1.7,11.1,4.7s12,8.2,14.1,8c2.1-0.2,5.3-2.4,7.2-1.7c2,0.7,4.5,1.6,5.7,3.1c4.1-4.1,4.6-4.7,10-10.2
		c-8.2-8.7-7.1-15.9-8.4-21c-1.3-5.1-8.4-9.2-10-19.6c-0.1-11.4-0.1-14.6,0-22.2c-4.8-2.2-6.2-0.8-8.5-6.3c-2.3-5.5,4-9.7,5.5-10.4
		c1.5-0.7,1.8-8.7,0.5-10.5c-1.4-1.8-8.1,1.4-9.6,4.2s-5.1,6.6-6.8,0.5c-1.7-6.1,3.3-12-11.3-12.7c-12.9-0.6-12.7,4.4-20.5-0.4
		c-2.5-1.5,1.3-10.2-8-7.2c-5.2,1.6,1.2,8.1-5.9,8.7c-7.1,0.7-8.9-1.1-12.5-4c-3.6-2.9-7.4-0.5-8.9,2.5s-9.7,13-13.5,14
		c-3.8,1-14-0.8-14.2,8.8c-0.2,9.6,2.4,11.2-0.8,14.5c-3.3,3.3-6.3,2.2-7.6,8.6c-1.3,6.5-8.9,10-12.1,11c-3.2,0.9-5.3,11-1.6,16.6
		c3.8,5.7,4.5,10,2.6,13.4c-1.9,3.4-2.4,3.1-2.9,4.8c2.5,1.6,3.7,5.3,12.2,5.2s15.7-0.5,21.3,3.5c5.6,4,27.6-0.5,30.1-1.2
		c2.5-0.7,10.6-3.7,12.8-2.2C163.2,260.2,162.6,260.5,163.3,261.5z" />
	</g>
	<g id="35">
		<path class="st0" d="M128.2,382.8c3.5-3.2,9-6.3,9.2-16.5c0.2-10.2,2.1-15,4.2-20.1s7.7-9.3,7.4-19.5c-0.2-10.2-2.3-29.5,2.9-37.2
		c5.3-7.7,5.3-3,5-16.5c-0.2-8,3.2-10.6,6.4-11.5c-0.8-1-0.1-1.2-2.3-2.8c-2.2-1.6-10.2,1.5-12.8,2.2c-2.5,0.7-24.5,5.2-30.1,1.2
		c-5.6-4-12.8-3.5-21.3-3.5s-9.7-3.7-12.2-5.2c-3.6,3.2-6.1,6.8-14.3,3.4s-7.8-6.6-16.4-3s-19.3,7.9-19.9,16.3
		c-0.6,8.4-3.7,14.1-7.4,17c-3.7,2.8-10.2,2.1-6.6,14.1s20.2,2.7,22.3,1.6c2.1-1.1,19.6-6.6,29.2-0.5s11.3,5.4,12.9,7.7
		c1.6,2.3-0.6,5.3,2.2,6.7c2.7,1.4,1.8,3.3,2.7,5.5c1,2.2,6.7-1.4,7.4,0.8c0.8,2.2-0.8,5.7,1,7.2c1.8,1.6,4.9,5.1,2,6.5
		c-2.9,1.4-4.9,2.5-5.1,5.9c-0.2,3.3-1.2,6.1-3.4,8.4c-2.2,2.3-3,8.8-1.9,12.1s1,7.6,4.7,8s11.9-0.2,15.8,2.2
		C113.8,375.5,115.8,381,128.2,382.8z" />
	</g>
	<g id="33">
		<path class="st0" d="M129.6,392.9c11.1,2.3,11.6,6.6,17.9,12.4s18.3,10.8,19.9,11.5c1.3,2,4.9,5.5,4.6,7.9c-0.3,2.4,0.5,9,3.5,10.2
		s14.3,4,14.4,6.4c0.1,2.4-1.6,13.8,2.1,16.9c3.7,3.1,9.5,6.1,8.2,12.4s-2.3,14.2-2.9,16.8c-5-1-12.7-0.9-15.5,3.6
		c-2.8,4.5-2.1,8.4-2.5,13.5c-0.5,5.1-4.4,7.6-12,9.3s-27.6,9.3-31.8-1.4c-4.2-10.6-7.7-8.5-5-15.8c2.7-7.3-2.7-6.4-5.1-7.7
		c-2.4-1.3-0.3-6.9-9.3-8.7s-10-8.9-6.8-12.7c3.2-3.8,12.7-7.9,9.3-12.7s-19.2-21.7-25.1-24.3c-5.9-2.6-12.3-11.6-7.3-19.9
		c5-8.3,20.9-14.2,27.8-15.5S124.6,392.8,129.6,392.9z" />
	</g>
	<g id="21">
		<path class="st0" d="M238.6,605.6c-4.8-2.2-0.2-6.5-5.3-9.2c-5.1-2.7-7-6.5-6.1-10.2c1-3.7,1.4-6.3-2-11.7c-3.3-5.5-5.9-4.5-12-2.6
		c-13.4,4.1-8.5-5.4-8.5-10.9s0.2-5.1-5.9-0.2c-6.1,4.9-17.4,5.2-23.7,1.8c-9.8,2.7-23.1,5.7-31.9,15.1
		c-8.8,9.4-10.8,11.2-11.3,20.7c-0.5,9.5-5,14.7-10.7,14.6c-5.7-0.1-19-2.5-28.1-7.3c-9.1-4.8-22.3,3-23.5,5.6s1.4,9-1.3,17.2
		c-2.7,8.2-7.2,9.9-9.2,18.7c-2,8.7,2.7,14.3-3.7,21.9s-2.9,12.4-8.3,20.3c-5.4,8-4.7,15.8-20.3,23.7c-15.6,8-11.3,9.1-7.4,14.2
		c3.9,5.2,16.2,12.8,24.7,14.3c8.5,1.6,21.4,9.5,29.7,11.2s8.7,9.8,19.2,10.9s29,1.4,35.4,0c6.5-1.4,8.2,4,9.4,8.1
		c1.2,4.1,11.7,5.2,16,3.5c4.2-1.7,8.6-5.7,11.9-1.3c3.3,4.4,3.1,5,5.7,5.9c3.3-2.4,21.3-10.7,18.5-19s-8.3-4.5-9.7-13.3
		c-1.4-8.8-2.8-10-0.9-14.5c1.9-4.5,11.3-13.3,11.2-21.2c-0.1-7.9,2.5-25.6,3.3-26.8c0.8-1.2,3.2-13.2,7.6-18.1s15.7-11.8,18.1-18.2
		s6.3-10.4,6.7-14.5c0.3-4.2-0.3-7.7,1.4-9.8c1.7-2.2,4.7-3.1,4.6-8.4C232.1,610.6,236,608,238.6,605.6z" />
	</g>
	<g id="17">
		<path class="st0" d="M394.8,660.3c2.4,0.1,1.2-0.3,8.6,1.3c7.4,1.6,20.2,1.8,27.7,6.9s10.4,8.7,13.4,11.2c3,2.5,9.1,3.8,11.9,3.8
		c-0.3,2.7,0.8,5.5,1.8,7.5s-0.7,8.3,0.6,9.2c1.4,0.9,5.6,0.3,7,3.9c1.4,3.6,12.5,4.7,14.8,5.2c2.3,0.5,5.1,2.2,4.5,11.2
		c-0.5,9,3.8,10.9,4.7,13.1c0.9,2.2,0,10.8-1.6,13.1s-1.9,5.1,2,4.9s5.5,0.1,7.7-2.7c2.2-2.8,1.4-2.9,4.9-3.4
		c3.5-0.5,2.9-2.7,5.9-2.7c2.9,0,3,0.8,3,4.4s-1,9.9,1.6,10.3c2.5,0.4,2.5,4.1,2.5,6.8c0,2.8,1.5,2.9,3.7,2.9s9.7,3.5,10.4,7.3
		c0.7,3.8-0.7,6.3,2.8,8.9c1.1,0.8,1.5,3.1,2.8,4.5c-3,3.8-4,7.1-1.9,9.5c2.1,2.4,3.2,8.5,0.7,11.8s0.6,4.4,0.5,5.9
		c0,1.6-1.5,21.3-4.2,25.4c-1.6,2.5,1.3,7.5-1.6,13.9c-3.2-4.3-17.4-16.2-19-19.3c-1.7-3-6.6-5.8-12.7-10.4s-20-8.1-25.1-9.2
		c-5.1-1.1-8-6.5-10.3-10.5c-2.3-4-5.2-6.7-13.5-9.3c-8.2-2.6-22-3.7-27-6.4c-5-2.7-16.2-5.7-21.4-12.9c-5.2-7.2-5.7-5.9-9.1-6.2
		s-4.5-4.5-8.8-6c1.9-6.9,4.9-11.1,7.7-14.6c2.8-3.6,5.9-4,5.7-13S394.2,663.7,394.8,660.3z" />
	</g>
	<g id="18">
		<path class="st0" d="M382.1,764.5c4.3,1.5,5.4,5.7,8.8,6s3.9-1,9.1,6.2c5.2,7.2,16.4,10.2,21.4,12.9c5,2.7,18.8,3.8,27,6.4
		c8.2,2.6,11.1,5.3,13.5,9.3c2.3,4,5.2,9.4,10.3,10.5c5.1,1.1,19,4.6,25.1,9.2s11,7.3,12.7,10.4c1.7,3,15.8,15,19,19.3
		c0.1,5.5-0.8,9.4-1.9,11.2c-3.7,6.1-17.7,17-31.3,23.9c-0.6,0.3-3.4,3.3-5.2,4.4c-3.4,2.1-7.4,6.5-17.7,3c-6.6-2.3-2.8-11-5.6-15.5
		c-5.1-8.4-8.1-10.3-15-3.8c-6.9,6.5-9.3,15-18.1,10.2c-3.7-2.5-0.8-4-0.5-11.9s-0.3-13-10-9.5s-10.2-6-11.6-8.1s-4.8-5.2-13.8,0.5
		s-25.6,5.3-22-3.8c3.5-9.1,4.3-16.2,4-21.9s-2-5.7-9.5-4.4c-7.6,1.3-27.1,13.6-33.7,12.7c-6.5-0.9-7.8-11.7-9.1-18.8
		c4.4-2.2,9.9-8.5,18.7-9.5c5.2-0.6,0.4-7.2,5-11.7c4.6-4.6,11.9-14.2,17.3-15c5.5-0.8,5.2-5.5,5.1-9.9c-0.1-4.4,0.1-4.7,3.1-6.8
		C379.7,767.9,378.7,767.7,382.1,764.5z" />
	</g>
	<g id="19">
		<path class="st0" d="M327.8,822.7c4.4-2.2,9.9-8.5,18.7-9.5c5.2-0.6,0.4-7.2,5-11.7c4.6-4.6,11.9-14.2,17.3-15
		c5.5-0.8,5.2-5.5,5.1-9.9c-0.1-4.4,0.1-4.7,3.1-6.8c2.7-1.9,1.8-2.1,5.2-5.3c-13.1-3.3-16.3-2.5-21-4.4c-4.7-1.8-8.5-4-21.3-3.5
		c-12.8,0.5-31.3-3.7-40.3-4.2s-29.2-4.3-44.7-0.3c-15.5,4-26.9,6.8-29.6,13.4c-2.7,6.7,0.9,7.7-8.7,18.4
		c-9.7,10.7-7.2,16.4-8.1,18.7c7.6,3.6,14.5,3.5,22,1.4c7.4-2.1,10.7-3.1,10.9-1.2c0.2,2-2.3,9.5,5,8.7c7.3-0.8,5-2.7,9.5-2.5
		c4.5,0.2,14.8-2.4,18.5-3.5c3.7-1.1,8.8-5,11.7-0.6s1.7,7.7,6.6,8.9s6.5,4.9,8.2,7.1c1.8,2.3,5.5-0.5,6.8,0.8
		c1.3,1.3,2.3,3.6,4.7,3.8C314.6,825.8,322.3,821.7,327.8,822.7z" />
	</g>
	<g id="20">
		<path class="st0" d="M171.6,780c3.3-2.4,21.3-10.7,18.5-19s-8.3-4.5-9.7-13.3c-1.4-8.8-2.8-10-0.9-14.5
		c1.9-4.5,11.3-13.3,11.2-21.2c-0.1-7.9,2.5-25.6,3.3-26.8c0.8-1.2,3.2-13.2,7.6-18.1s15.7-11.8,18.1-18.2s6.3-10.4,6.7-14.5
		c0.3-4.2-0.3-7.7,1.4-9.8c1.7-2.2,4.7-3.1,4.6-8.4c-0.1-5.3,3.8-8,6.4-10.4c4.7,1.8,7.8,4.5,12.7,5.3s2.2,3.3,9,3.1
		c6.8-0.2,1.2,7,4.9,7.6c3.7,0.6,17.8,7.2,25.8,11.9c-0.1,16.1,2.9,20.5,4.8,27.5c1.8,6.9,6.9,11.2,11.6,14
		c4.7,2.7,8.9,5.7,11.7,10.3c2.9,4.6,5,4.2,9.4,2.7c4.4-1.4,6.1-2.9,10.2,0.3c6.7,5.2,17,0,21.5-1.3s10.8-5.7,11.3-13.2
		c0.5-7.4,2.6-14.7,3.1-17.6c2,1,17.7,4,20.1,4.2c-0.6,3.3,0.5,67.5,0.7,76.5s-2.9,9.4-5.7,13c-2.8,3.6-5.8,7.7-7.7,14.6
		c-13.1-3.3-16.3-2.5-21-4.4c-4.7-1.8-8.5-4-21.3-3.5c-12.8,0.5-31.3-3.7-40.3-4.2s-29.2-4.3-44.7-0.3c-15.5,4-26.9,6.8-29.6,13.4
		c-2.7,6.7,0.9,7.7-8.7,18.4c-9.7,10.7-7.2,16.4-8.1,18.7c-6.7,2-14.1-0.6-19-3.8C184.2,795.5,175.4,789.2,171.6,780z" />
	</g>
	<g id="14">
		<path class="st0" d="M713.8,575.2c-0.6-3.1,2.5-5.2,4.8-8.4s-2.8-8.1-3.4-10.9c-0.6-2.7,3.6-11.3,3.8-16s-2.9-7.2-4.6-10.3
		c-1.7-3.1-6.7-3.9-7.8-4.8c0-0.9,0-1.3,0-2.6c1.6-1.1,1.2-2.8,1.7-4.2c1.2-3.6,3.1-5.5-1.2-9.8c-4.2-4.4-5.6-6.2-5.5-13
		c0.1-6.8-1.9-14,5.1-17.5c7.8-4,6.5-15.1,6.8-17.3c0.3-2.2,3.7-8.4,4.8-11.1s2.3-9,6.8-10.1c4.6-1,9.1-10,9.7-16.4
		c0.6-6.4,5.5-17.2,9-21.2c3.5-4,7.1-5.5,8-11.3c0.3-1.8,2.3-2.5,4.5-5.2c5.5,2.5,6.9,7.1,5.5,10.1c-1.4,3-13.4,12.8-8.6,17.8
		c4.8,5,11.8,4.4,15.6,5.2c3.7,0.8,4.8,6.1,5.7,8.3c0.9,2.2,8.9,2.2,12.8,1.9c3.9-0.3,7.6,6.7,6,8.1c-1.7,1.5-8.8,11.8-7.3,18.1
		c1.5,6.3,23.6,2.7,26.4,2.6c2.8-0.1,6.6-3,6.1,0.5s0.3,7.7-1.1,10.4c-2.1,2-2.1,6.2-2.4,12.2s-7.2,21.6-14.9,29.6
		s-2.6,10.7-11.6,17.9s-10.9,9.6-15,31.2c-3-2.1-13.5-2.6-14,3.7c-0.9,10.5-1.4,16.9-6,15.7c-7-1.9-3.4-6-10.8-6.2
		c-7.3-0.2-9.7,2-17.6,2.1C717.3,574.1,718.2,574.1,713.8,575.2z" />
	</g>
	<g id="15">
		<path class="st0" d="M773.5,558.7c4.1-21.6,6-24,15-31.2s4-9.9,11.6-17.9s14.5-23.7,14.9-29.6s0.4-10.2,2.4-12.2
		c7.4-1,20.5-2.4,27.9,0.7c5.4,2.3,5.7,9.3,6.4,12.2s1.8,8,7.7,6.9s15-5,20-3.5c3.3,1,3.3,1.2,4,2.3c-0.9,2.7-1.4,9.9,4.6,18.8
		c6,8.9,1.4,8.1,3,16.7c1.6,8.6-1.5,20,0.2,32c1.7,12,2.4,21.4,2.4,25.6c0,4.2,0.1,8.1,0,11.1c-2.8,0.9-5,0.7-5.9,6.9
		c-0.9,6.3-5.3,6.3-9.9,4.7c-4.6-1.6-7-0.1-10.7,0.9c-3.7,1-9.1-0.1-11.3-4.9c-2.2-4.8-6.9-5.6-10.8-5.9c-3.9-0.3-9.3-4.2-15.5-12.7
		s-6.7-10.7-13.3-15.8s-16.6,5.5-21.5,9.3c-5,3.8-9.1,10.3-14.6-1.6C775.9,562.6,775,562.1,773.5,558.7z" />
	</g>
	<g id="16">
		<path class="st0" d="M893.6,590.6c0.1-3,0-6.9,0-11.1c0-4.2-0.7-13.6-2.4-25.6c-1.7-12,1.4-23.3-0.2-32c-1.6-8.6,3-7.8-3-16.7
		c-6-8.9-5.5-16-4.6-18.8c6.3,3,16,8.7,17.7,10.8c1.7,2.1,5.6,3.1,10.2,2.7c4.6-0.4,8.3-1.8,12,6.5c3.7,8.3,5.2,12,15.9,11.2
		c10.7-0.8,8.1-6,14.7-7.4s17.5-0.3,19.6,3.3c2.1,3.5,0.3,8.3,2.9,11.1s7.8,16.3,5.3,20.5c-2.5,4.2-11.6,4.3-13.4,5.1
		c-1.8,0.8,0,3.1,1.7,5.2c1.7,2.1,8.5,10.8,3,11.7s-13.8-0.8-8.1,2c5.7,2.7,7.4,7.3,5.7,9.5c-1.7,2.2-4.3,5-3.1,10.4
		c1.2,5.5,5.5,6.1,5.6,10.3c0.1,4.2-3.4,6.4-8.6,5.2c-5.2-1.2-16.7,1-20,2s-5.3,1.7-10.4-2c-5.1-3.7-7.8-7.6-13.6-10.4
		s-5,0.9-10,1.3C905.5,595.9,900.5,592,893.6,590.6z" />
	</g>
</svg>